<?xml version="1.0" encoding="UTF-8"?><svg id="LOGO" xmlns="http://www.w3.org/2000/svg" viewBox="0 0 160.09 45.13"><g><g><path d="M27.87,10.46c-.55-.93-1.76-1.04-2.62-1.04-1.88,0-3.13,.59-3.72,1.73l-5.73,10.52-5.49-10.45c-.6-1.2-1.89-1.8-3.83-1.8-.88,0-2.11,.11-2.66,1.05-.19,.32-.43,1,.07,1.9l8.7,15.3v9.02c0,.58,.23,2.47,3.25,2.47s3.25-1.89,3.25-2.47v-9.02l8.71-15.3c.5-.89,.26-1.57,.06-1.9Z" fill="#fff"/><path d="M48.83,33.72h-12.01v-7.41h9.3c1.65,0,2.67-1.04,2.67-2.72s-1.02-2.72-2.67-2.72h-9.3v-6.03h11.53c1.65,0,2.67-1.04,2.67-2.72s-1.02-2.72-2.67-2.72h-14.98c-2.25,0-3.06,1.45-3.06,2.81v24.12c0,1.36,.8,2.81,3.06,2.81h15.45c1.65,0,2.67-1.04,2.67-2.72s-1.02-2.72-2.67-2.72Z" fill="#fff"/><path d="M75.57,25.32c-1.24-1.2-3-2.24-5.26-3.1l-4.51-1.67c-1.2-.46-2.14-.84-2.75-1.12-1.48-.78-1.66-1.56-1.66-2.09,0-.9,.33-1.53,1.06-2.03,.86-.58,2.29-.88,4.25-.88s3.4,.47,4.49,1.43l.12,.1c1.3,.88,2.74,.71,3.86-.45,.62-.64,.91-1.33,.85-2.03-.04-.46-.24-1.12-1.01-1.73-2.01-1.87-4.83-2.82-8.39-2.82s-6.37,.77-8.48,2.28c-2.2,1.6-3.31,3.69-3.31,6.2,0,3.63,2.43,6.37,7.23,8.15l4.54,1.7c1.55,.61,2.77,1.2,3.63,1.76,.36,.23,.83,.68,.83,1.9,0,.94-.39,1.64-1.24,2.21-.97,.66-2.37,.99-4.14,.99-2.99,0-5.25-.7-6.76-2.11-1.24-1.07-2.74-.98-4.01,.25-.7,.67-1.04,1.39-1.02,2.13,.01,.47,.19,1.16,.91,1.79,2.49,2.29,6.14,3.45,10.83,3.45,3.48,0,6.34-.83,8.52-2.46,2.29-1.71,3.45-3.82,3.45-6.27s-.69-4.26-2.06-5.59Z" fill="#fff"/></g><g><g><circle cx="127.95" cy="25.33" r="9.82" transform="translate(-2.4 30.07) rotate(-13.28)" fill="none"/><path d="M129.13,20.22h-2.36c-.44,0-.79,.35-.79,.79s.35,.79,.79,.79h.65v.96c0,.29,.24,.53,.53,.53s.53-.24,.53-.53v-.96h.65c.44,0,.79-.35,.79-.79s-.35-.79-.79-.79Z" fill="#fff"/></g><path d="M106.76,22.67h-7.35c-1.68,0-2.72,1.04-2.72,2.73s1.04,2.73,2.72,2.73h4.18v5.46c-1.17,.7-2.95,1.05-5.32,1.05-2.67,0-4.78-.88-6.45-2.69-1.67-1.81-2.52-4.35-2.52-7.55s.85-5.7,2.59-7.52c1.73-1.81,3.88-2.68,6.58-2.68s4.49,.48,5.39,1.39l.13,.12c1.31,1,2.79,.87,3.97-.35,.64-.66,.94-1.36,.89-2.08-.03-.47-.23-1.15-1-1.79-1.99-1.91-5.21-2.88-9.56-2.88s-8.13,1.44-11.15,4.29c-3.04,2.87-4.58,6.76-4.58,11.57s1.49,8.68,4.44,11.53c2.96,2.83,6.81,4.26,11.46,4.26s8.33-1.2,10.99-3.58l.42-.37v-10.76c0-1.38-.82-2.86-3.12-2.86Z" fill="#fff"/></g></g><g><path d="M153.48,34.47c-.56-.68-1.29-1.08-2.16-1.19-.84-.1-1.63,.11-2.34,.64-.71,.53-1.15,1.24-1.25,2.07h0c-.1,.85,.14,1.66,.7,2.35,.56,.68,1.28,1.08,2.14,1.19,.14,.02,.28,.03,.42,.03,.7,0,1.35-.22,1.94-.66,.71-.53,1.15-1.25,1.25-2.09,.1-.83-.14-1.64-.71-2.33Z" fill="#fff"/><path d="M156.29,9.29c-.48-.59-1.14-.95-1.89-1.04-.77-.09-1.51,.1-2.12,.56-.63,.47-1.02,1.12-1.11,1.89l-.52,4.25-.93,14.14h0c-.03,.5,.11,.95,.4,1.3,.23,.29,.66,.64,1.4,.73,.17,.02,.32,.03,.45,.03s.25-.01,.36-.03c.3-.06,.53-.15,.73-.28,.19-.13,.33-.26,.42-.39,.18-.23,.3-.51,.37-.85l2.54-14,.52-4.19c.1-.78-.11-1.51-.61-2.11Z" fill="#fff"/></g><g><circle cx="127.95" cy="25.33" r="9.82" transform="translate(-2.4 30.07) rotate(-13.28)" fill="none"/><path d="M137.14,6.48c-.95-.36-2.46,2.19-3.08,3.44,2.1,.84,3.98,2.1,5.54,3.68,.06-1.04-1.34-6.7-2.46-7.13Z" fill="none"/><path d="M118.83,6.33c-1.14,.44-2.57,6.3-2.46,7.18,1.58-1.57,3.48-2.81,5.59-3.64-.58-1.21-2.16-3.92-3.13-3.54Z" fill="none"/><path d="M141.71,16.22s.02-.02,.02-.04c.27-1.34-2.26-11.76-4.26-12.52-1.57-.6-4.04,3.41-5.19,5.67-1.38-.38-2.83-.6-4.33-.6s-2.9,.21-4.26,.58c-1.16-2.26-3.61-6.25-5.18-5.65-1.98,.76-4.48,10.99-4.26,12.48-1.7,2.58-2.69,5.67-2.69,8.99,0,9.06,7.34,16.4,16.4,16.4s16.4-7.34,16.4-16.4c0-3.29-.98-6.34-2.64-8.9Zm-22.88-9.89c.97-.37,2.54,2.33,3.13,3.54-2.11,.83-4.01,2.07-5.59,3.64-.11-.89,1.32-6.75,2.46-7.18Zm-1.82,11.88c.04-.73,.68-1.3,1.43-1.25,.75,.04,1.32,.67,1.28,1.4-.04,.73-.68,1.3-1.43,1.26-.75-.04-1.32-.67-1.28-1.4Zm10.94,16.95c-5.43,0-9.82-4.4-9.82-9.82s4.4-9.82,9.82-9.82,9.82,4.4,9.82,9.82-4.4,9.82-9.82,9.82Zm9.28-15.54c-.75-.04-1.32-.67-1.28-1.4,.04-.73,.68-1.3,1.43-1.25,.75,.04,1.32,.67,1.28,1.4-.04,.73-.68,1.3-1.43,1.26Zm-3.16-9.69c.62-1.25,2.13-3.81,3.08-3.44,1.12,.43,2.52,6.09,2.46,7.13-1.56-1.58-3.45-2.84-5.54-3.68Z" fill="#fff"/></g></svg>